<svg width="340" height="402" viewBox="0 0 340 402" fill="none" xmlns="http://www.w3.org/2000/svg">
<path d="M293.984 244.246H45.3535L89.5369 65.486L157.39 10.2448C160.207 7.96369 163.422 6.55733 166.727 6.03437C168.674 5.72813 170.663 5.72813 172.61 6.03437C175.915 6.55733 179.13 7.96369 181.947 10.2448L249.8 65.486L293.984 244.246Z" fill="#FFA800"/>
<path d="M249.801 65.4867L181.947 10.2455C179.13 7.96442 175.916 6.55807 172.61 6.0351C170.664 5.72886 168.675 5.72886 166.728 6.0351C163.798 6.49839 160.941 7.65975 158.367 9.50583C158.696 9.74219 227.196 65.4859 227.196 65.4859L271.379 244.246H293.985L249.801 65.4867Z" fill="#D08900"/>
<path d="M293.984 244.246H45.3535L166.727 6.0351C168.674 5.72886 170.663 5.72886 172.61 6.0351L293.984 244.246Z" fill="#FFA800"/>
<path d="M172.61 6.0351C170.663 5.72886 168.674 5.72886 166.727 6.0351L158.366 22.4465L271.378 244.247H293.984L172.61 6.0351Z" fill="#D08900"/>
<path d="M89.5317 65.4907L68.159 151.992L53.7278 139.334L25.6157 114.662L67.8632 82.1612L89.5317 65.4907Z" fill="#E1FFA0"/>
<path d="M89.5317 65.4907L68.159 151.992L53.7278 139.334L67.8632 82.1612L89.5317 65.4907Z" fill="#CCF49F"/>
<path d="M25.6138 114.66V28.9576C25.6138 25.5693 29.7397 24.3726 31.2889 27.3117L62.4113 86.3542L25.6138 114.66Z" fill="#FFD4A2"/>
<path d="M31.2888 27.3119C29.7397 24.3728 25.6138 25.5687 25.6138 28.9578V54.6177C26.8931 54.1135 28.4639 54.4912 29.2952 56.068L44.8564 86.3544L25.613 101.157V114.661L62.4105 86.3544L31.2888 27.3119Z" fill="#FFEC3F"/>
<path d="M271.182 151.995L313.724 114.66L249.804 65.4907L271.182 151.995Z" fill="#E1FFA0"/>
<path d="M249.804 65.4907L255.11 86.9614L291.118 114.66L267.152 135.692L271.182 151.995L313.724 114.66L249.804 65.4907Z" fill="#CCF49F"/>
<path d="M313.724 114.66V29.6801C313.724 26.2432 309.504 25.0865 308.009 28.1136L278.598 87.6398L313.724 114.66Z" fill="#FFD4A2"/>
<path d="M308.008 28.1144L294.762 54.9222C295.574 55.4711 296.16 56.4338 296.16 57.7137L296.166 101.155L313.723 114.66V29.6801C313.724 26.2432 309.504 25.0873 308.008 28.1144V28.1144Z" fill="#FFEC3F"/>
<path d="M27.1238 244.246H312.214C317.05 244.246 321.251 247.863 322.362 252.985L333.947 306.362H5.38965L16.9751 252.985C18.087 247.864 22.2879 244.246 27.1238 244.246Z" fill="#E1FFA0"/>
<path d="M322.362 252.985C321.25 247.864 317.049 244.247 312.213 244.247H289.607C294.443 244.247 298.644 247.864 299.755 252.985L311.341 306.362H333.946L322.362 252.985Z" fill="#CCF49F"/>
<path d="M5.38965 306.362L77.2811 375.375L99.7079 306.362H5.38965Z" fill="#FFA800"/>
<path d="M77.1022 306.362L60.0503 358.834L77.2812 375.374L99.7081 306.362H77.1022Z" fill="#D08900"/>
<path d="M7.56168 388.293L31.9555 331.864L77.2812 375.374L13.5037 395.834C9.36342 397.162 5.72386 392.543 7.56168 388.293V388.293Z" fill="#FFD4A2"/>
<path d="M31.9554 331.864L25.3257 347.2L54.6752 375.374L7.0752 390.644C7.08746 394.046 10.1281 396.916 13.5043 395.834L77.2818 375.374L31.9554 331.864Z" fill="#FFEC3F"/>
<path d="M333.947 306.362L262.057 375.375L239.63 306.362H333.947Z" fill="#FFA800"/>
<path d="M311.341 306.362L256.682 358.834L262.057 375.374L333.947 306.362H311.341Z" fill="#D08900"/>
<path d="M331.776 388.293L307.382 331.864L262.057 375.374L325.834 395.834C329.974 397.162 333.614 392.543 331.776 388.293Z" fill="#FFD4A2"/>
<path d="M331.776 388.293L307.382 331.864L291.539 347.073L307.251 382.412C308.407 385.086 307.394 387.903 305.454 389.296L325.835 395.834C329.974 397.162 333.614 392.543 331.776 388.293V388.293Z" fill="#FFEC3F"/>
<path d="M338.192 310.016C338.933 308.941 339.691 307.097 339.215 305.008L327.629 251.631C325.933 243.815 319.594 238.357 312.214 238.357H298.133L277.324 154.169L317.121 119.245C318.126 118.33 319.129 116.767 319.136 114.66V29.6801C319.136 25.3927 316.568 21.8089 312.749 20.7622C308.927 19.7163 305.107 21.549 303.242 25.3252L276.727 78.9896L185.178 5.5208C176.81 -1.41831 163.607 -2.2538 154.149 5.53022L64.1458 77.8086L35.9832 24.3821C34.0509 20.7159 30.2302 18.9828 26.4774 20.0712C22.7238 21.1595 20.2019 24.7308 20.2019 28.9577V114.66C20.2575 116.151 20.6738 117.86 22.2165 119.245L62.0136 154.169L41.2052 238.357H27.1239C19.7437 238.357 13.4048 243.816 11.7084 251.631L0.123022 305.008C-0.198795 306.747 0.0277766 309.065 1.81004 310.779L25.3294 333.357L2.66436 385.787C-0.814287 393.685 5.86089 404.361 15.0334 401.483L78.8108 381.024C80.2121 380.522 81.723 379.386 82.3826 377.339L103.534 312.252H319.631L264.486 365.189L253.728 332.084C252.732 329.017 249.639 327.409 246.822 328.496C244.005 329.58 242.528 332.945 243.525 336.011L256.954 377.338C257.481 378.829 258.621 380.417 260.526 381.023L324.304 401.483C331.148 404.293 340.628 395.172 336.673 385.786L314.008 333.356L337.528 310.778C337.646 310.648 337.743 310.558 338.192 310.016V310.016ZM326.492 389.905L272.982 372.74L305.555 341.471L326.492 389.905ZM94.2768 68.9826L152.702 21.4171L131.701 62.6355C130.251 65.4804 131.196 69.065 133.809 70.6418C136.422 72.2193 139.716 71.1914 141.166 68.3473L169.668 12.4081L284.794 238.357H54.5425L128.974 92.2773C130.423 89.4332 129.479 85.8478 126.865 84.2711C124.25 82.692 120.958 83.7214 119.508 86.5655L62.067 199.302L94.2768 68.9826ZM245.061 68.9826L277.271 199.302L186.635 21.4171L245.061 68.9826ZM308.312 39.9344V103.286L285.631 85.8392L308.312 39.9344ZM304.751 114.97L274.251 141.736L258.924 79.7183L304.751 114.97ZM55.2677 84.6378L31.0254 103.286V38.6474L55.2677 84.6378ZM34.587 114.97L80.4141 79.7183L65.0867 141.736L34.587 114.97ZM12.8456 389.905L33.7832 341.471L66.3559 372.74L12.8456 389.905ZM74.8509 365.189L19.7055 312.252H92.0544L74.8509 365.189ZM12.2294 300.473L22.2425 254.339C22.7794 251.864 24.7867 250.135 27.1239 250.135H312.214C314.551 250.135 316.558 251.864 317.095 254.339L327.108 300.473H12.2294Z" fill="black"/>
</svg>
