<svg width="1923" height="412" viewBox="0 0 1923 412" fill="none" xmlns="http://www.w3.org/2000/svg">
<path d="M1876.98 254.246H1628.35L1672.54 75.486L1740.39 20.2448C1743.21 17.9637 1746.42 16.5573 1749.73 16.0344C1751.67 15.7281 1753.66 15.7281 1755.61 16.0344C1758.92 16.5573 1762.13 17.9637 1764.95 20.2448L1832.8 75.486L1876.98 254.246Z" fill="#FFA800"/>
<path d="M1832.8 75.4867L1764.95 20.2455C1762.13 17.9644 1758.92 16.5581 1755.61 16.0351C1753.66 15.7289 1751.67 15.7289 1749.73 16.0351C1746.8 16.4984 1743.94 17.6597 1741.37 19.5058C1741.7 19.7422 1810.2 75.4859 1810.2 75.4859L1854.38 254.246H1876.99L1832.8 75.4867Z" fill="#D08900"/>
<path d="M1876.98 254.246H1628.35L1749.73 16.0351C1751.67 15.7289 1753.66 15.7289 1755.61 16.0351L1876.98 254.246Z" fill="#FFA800"/>
<path d="M1755.61 16.0351C1753.66 15.7289 1751.67 15.7289 1749.73 16.0351L1741.37 32.4465L1854.38 254.247H1876.98L1755.61 16.0351Z" fill="#D08900"/>
<path d="M1672.53 75.4907L1651.16 161.992L1636.73 149.334L1608.62 124.662L1650.86 92.1612L1672.53 75.4907Z" fill="#E1FFA0"/>
<path d="M1672.53 75.4907L1651.16 161.992L1636.73 149.334L1650.86 92.1612L1672.53 75.4907Z" fill="#CCF49F"/>
<path d="M1608.61 124.66V38.9576C1608.61 35.5693 1612.74 34.3726 1614.29 37.3117L1645.41 96.3542L1608.61 124.66Z" fill="#FFD4A2"/>
<path d="M1614.29 37.3119C1612.74 34.3728 1608.61 35.5687 1608.61 38.9578V64.6177C1609.89 64.1135 1611.46 64.4912 1612.3 66.068L1627.86 96.3544L1608.61 111.157V124.661L1645.41 96.3544L1614.29 37.3119Z" fill="#FFEC3F"/>
<path d="M1854.18 161.995L1896.72 124.66L1832.8 75.4907L1854.18 161.995Z" fill="#E1FFA0"/>
<path d="M1832.8 75.4907L1838.11 96.9614L1874.12 124.66L1850.15 145.692L1854.18 161.995L1896.72 124.66L1832.8 75.4907Z" fill="#CCF49F"/>
<path d="M1896.72 124.66V39.6801C1896.72 36.2432 1892.5 35.0865 1891.01 38.1136L1861.6 97.6398L1896.72 124.66Z" fill="#FFD4A2"/>
<path d="M1891.01 38.1144L1877.76 64.9222C1878.57 65.4711 1879.16 66.4338 1879.16 67.7137L1879.17 111.155L1896.72 124.66V39.6801C1896.72 36.2432 1892.5 35.0873 1891.01 38.1144V38.1144Z" fill="#FFEC3F"/>
<path d="M1610.12 254.246H1895.21C1900.05 254.246 1904.25 257.863 1905.36 262.985L1916.95 316.362H1588.39L1599.98 262.985C1601.09 257.864 1605.29 254.246 1610.12 254.246Z" fill="#E1FFA0"/>
<path d="M1905.36 262.985C1904.25 257.864 1900.05 254.247 1895.21 254.247H1872.61C1877.44 254.247 1881.64 257.864 1882.76 262.985L1894.34 316.362H1916.95L1905.36 262.985Z" fill="#CCF49F"/>
<path d="M1588.39 316.362L1660.28 385.375L1682.71 316.362H1588.39Z" fill="#FFA800"/>
<path d="M1660.1 316.362L1643.05 368.834L1660.28 385.374L1682.71 316.362H1660.1Z" fill="#D08900"/>
<path d="M1590.56 398.293L1614.96 341.864L1660.28 385.374L1596.5 405.834C1592.36 407.162 1588.72 402.543 1590.56 398.293V398.293Z" fill="#FFD4A2"/>
<path d="M1614.96 341.864L1608.33 357.2L1637.68 385.374L1590.08 400.644C1590.09 404.046 1593.13 406.916 1596.5 405.834L1660.28 385.374L1614.96 341.864Z" fill="#FFEC3F"/>
<path d="M1916.95 316.362L1845.06 385.375L1822.63 316.362H1916.95Z" fill="#FFA800"/>
<path d="M1894.34 316.362L1839.68 368.834L1845.06 385.374L1916.95 316.362H1894.34Z" fill="#D08900"/>
<path d="M1914.78 398.293L1890.38 341.864L1845.06 385.374L1908.83 405.834C1912.97 407.162 1916.61 402.543 1914.78 398.293Z" fill="#FFD4A2"/>
<path d="M1914.78 398.293L1890.38 341.864L1874.54 357.073L1890.25 392.412C1891.41 395.086 1890.39 397.903 1888.45 399.296L1908.83 405.834C1912.97 407.162 1916.61 402.543 1914.78 398.293V398.293Z" fill="#FFEC3F"/>
<path d="M1921.19 320.016C1921.93 318.941 1922.69 317.097 1922.21 315.008L1910.63 261.631C1908.93 253.815 1902.59 248.357 1895.21 248.357H1881.13L1860.32 164.169L1900.12 129.245C1901.13 128.33 1902.13 126.767 1902.14 124.66V39.6801C1902.14 35.3927 1899.57 31.8089 1895.75 30.7622C1891.93 29.7163 1888.11 31.549 1886.24 35.3252L1859.73 88.9896L1768.18 15.5208C1759.81 8.58169 1746.61 7.7462 1737.15 15.5302L1647.15 87.8086L1618.98 34.3821C1617.05 30.7159 1613.23 28.9828 1609.48 30.0712C1605.72 31.1595 1603.2 34.7308 1603.2 38.9577V124.66C1603.26 126.151 1603.67 127.86 1605.22 129.245L1645.01 164.169L1624.21 248.357H1610.12C1602.74 248.357 1596.4 253.816 1594.71 261.631L1583.12 315.008C1582.8 316.747 1583.03 319.065 1584.81 320.779L1608.33 343.357L1585.66 395.787C1582.19 403.685 1588.86 414.361 1598.03 411.483L1661.81 391.024C1663.21 390.522 1664.72 389.386 1665.38 387.339L1686.53 322.252H1902.63L1847.49 375.189L1836.73 342.084C1835.73 339.017 1832.64 337.409 1829.82 338.496C1827 339.58 1825.53 342.945 1826.52 346.011L1839.95 387.338C1840.48 388.829 1841.62 390.417 1843.53 391.023L1907.3 411.483C1914.15 414.293 1923.63 405.172 1919.67 395.786L1897.01 343.356L1920.53 320.778C1920.65 320.648 1920.74 320.558 1921.19 320.016V320.016ZM1909.49 399.905L1855.98 382.74L1888.55 351.471L1909.49 399.905ZM1677.28 78.9826L1735.7 31.4171L1714.7 72.6355C1713.25 75.4804 1714.2 79.065 1716.81 80.6418C1719.42 82.2193 1722.72 81.1914 1724.17 78.3473L1752.67 22.4081L1867.79 248.357H1637.54L1711.97 102.277C1713.42 99.4332 1712.48 95.8478 1709.87 94.2711C1707.25 92.692 1703.96 93.7214 1702.51 96.5655L1645.07 209.302L1677.28 78.9826ZM1828.06 78.9826L1860.27 209.302L1769.64 31.4171L1828.06 78.9826ZM1891.31 49.9344V113.286L1868.63 95.8392L1891.31 49.9344ZM1887.75 124.97L1857.25 151.736L1841.92 89.7183L1887.75 124.97ZM1638.27 94.6378L1614.03 113.286V48.6474L1638.27 94.6378ZM1617.59 124.97L1663.41 89.7183L1648.09 151.736L1617.59 124.97ZM1595.85 399.905L1616.78 351.471L1649.36 382.74L1595.85 399.905ZM1657.85 375.189L1602.71 322.252H1675.05L1657.85 375.189ZM1595.23 310.473L1605.24 264.339C1605.78 261.864 1607.79 260.135 1610.12 260.135H1895.21C1897.55 260.135 1899.56 261.864 1900.1 264.339L1910.11 310.473H1595.23Z" fill="black"/>
<path d="M123.695 149.874C122.594 165.097 116.958 177.081 106.788 185.826C96.6821 194.571 83.3377 198.943 66.7544 198.943C48.6164 198.943 34.3327 192.854 23.9033 180.676C13.5387 168.433 8.35645 151.655 8.35645 130.343V121.695C8.35645 108.091 10.7533 96.1073 15.5469 85.7427C20.3405 75.3781 27.1746 67.4427 36.0493 61.9365C44.9888 56.3656 55.3534 53.5801 67.1431 53.5801C83.4673 53.5801 96.6174 57.9526 106.593 66.6978C116.569 75.4429 122.334 87.7184 123.889 103.524H94.7388C94.0262 94.3906 91.4674 87.7832 87.0625 83.7021C82.7223 79.5563 76.0825 77.4834 67.1431 77.4834C57.4263 77.4834 50.1387 80.9814 45.2803 87.9775C40.4867 94.9089 38.0251 105.694 37.8955 120.334V131.023C37.8955 146.311 40.1951 157.485 44.7944 164.546C49.4585 171.607 56.7785 175.137 66.7544 175.137C75.7586 175.137 82.4632 173.097 86.8682 169.016C91.3379 164.87 93.8966 158.489 94.5444 149.874H123.695ZM259.05 129.468C259.05 143.396 256.588 155.606 251.665 166.101C246.742 176.595 239.681 184.692 230.482 190.393C221.349 196.093 210.854 198.943 199 198.943C187.275 198.943 176.813 196.125 167.615 190.49C158.416 184.854 151.291 176.821 146.238 166.392C141.185 155.898 138.626 143.849 138.562 130.246V123.25C138.562 109.322 141.056 97.0789 146.043 86.52C151.096 75.8963 158.189 67.7666 167.323 62.1309C176.522 56.4303 187.016 53.5801 198.806 53.5801C210.595 53.5801 221.057 56.4303 230.191 62.1309C239.389 67.7666 246.483 75.8963 251.471 86.52C256.523 97.0789 259.05 109.29 259.05 123.152V129.468ZM229.511 123.055C229.511 108.221 226.855 96.9494 221.543 89.2407C216.231 81.5321 208.652 77.6777 198.806 77.6777C189.024 77.6777 181.477 81.4997 176.166 89.1436C170.854 96.7227 168.165 107.865 168.101 122.569V129.468C168.101 143.914 170.757 155.121 176.068 163.088C181.38 171.056 189.024 175.04 199 175.04C208.782 175.04 216.296 171.218 221.543 163.574C226.79 155.866 229.446 144.659 229.511 129.954V123.055ZM318.322 55.5234L354.663 158.133L390.81 55.5234H429.094V197H399.846V158.327L402.761 91.5728L364.574 197H344.558L306.468 91.6699L309.383 158.327V197H280.232V55.5234H318.322ZM483.702 147.153V197H454.552V55.5234H509.743C520.367 55.5234 529.695 57.4668 537.728 61.3535C545.825 65.2402 552.044 70.7788 556.384 77.9692C560.724 85.0949 562.894 93.2246 562.894 102.358C562.894 116.221 558.133 127.169 548.61 135.201C539.153 143.169 526.035 147.153 509.257 147.153H483.702ZM483.702 123.541H509.743C517.452 123.541 523.314 121.727 527.331 118.1C531.412 114.472 533.452 109.29 533.452 102.553C533.452 95.6214 531.412 90.0181 527.331 85.7427C523.25 81.4673 517.614 79.2648 510.423 79.1353H483.702V123.541ZM645.584 167.85H594.474L584.757 197H553.76L606.425 55.5234H633.438L686.395 197H655.398L645.584 167.85ZM602.344 144.238H637.713L619.932 91.2812L602.344 144.238ZM814.656 197H785.506L728.76 103.913V197H699.609V55.5234H728.76L785.603 148.805V55.5234H814.656V197ZM886.172 119.266L915.614 55.5234H947.485L901.039 145.695V197H871.402V145.695L824.956 55.5234H856.924L886.172 119.266Z" fill="black"/>
<path d="M78.9531 297.436H28.7319V338.504H87.0713V351H13.4507V235.117H86.2754V247.692H28.7319V284.94H78.9531V297.436ZM130.129 331.023L151.459 264.884H166.502L135.621 351H124.399L93.1997 264.884H108.242L130.129 331.023ZM175.496 307.146C175.496 298.709 177.14 291.122 180.43 284.383C183.773 277.645 188.389 272.445 194.279 268.784C200.222 265.123 206.987 263.292 214.574 263.292C226.3 263.292 235.772 267.351 242.988 275.469C250.257 283.587 253.892 294.385 253.892 307.862V308.897C253.892 317.28 252.273 324.815 249.037 331.5C245.853 338.133 241.263 343.306 235.268 347.021C229.325 350.735 222.48 352.592 214.733 352.592C203.06 352.592 193.589 348.533 186.32 340.415C179.104 332.296 175.496 321.552 175.496 308.181V307.146ZM190.299 308.897C190.299 318.448 192.501 326.115 196.905 331.898C201.362 337.682 207.305 340.574 214.733 340.574C222.215 340.574 228.158 337.655 232.562 331.819C236.965 325.929 239.167 317.705 239.167 307.146C239.167 297.701 236.912 290.061 232.402 284.224C227.945 278.334 222.003 275.39 214.574 275.39C207.305 275.39 201.442 278.281 196.985 284.065C192.528 289.848 190.299 298.126 190.299 308.897ZM288.354 351H273.63V228.75H288.354V351ZM340.406 331.023L361.736 264.884H376.778L345.897 351H334.675L303.476 264.884H318.519L340.406 331.023ZM406.943 351H392.219V264.884H406.943V351ZM391.025 242.042C391.025 239.654 391.741 237.638 393.174 235.993C394.66 234.348 396.835 233.525 399.7 233.525C402.565 233.525 404.741 234.348 406.227 235.993C407.712 237.638 408.455 239.654 408.455 242.042C408.455 244.429 407.712 246.419 406.227 248.011C404.741 249.603 402.565 250.398 399.7 250.398C396.835 250.398 394.66 249.603 393.174 248.011C391.741 246.419 391.025 244.429 391.025 242.042ZM444.509 264.884L444.987 275.708C451.566 267.431 460.162 263.292 470.774 263.292C488.973 263.292 498.153 273.559 498.312 294.093V351H483.588V294.014C483.535 287.806 482.102 283.216 479.29 280.245C476.531 277.273 472.207 275.788 466.317 275.788C461.542 275.788 457.35 277.061 453.742 279.608C450.134 282.155 447.321 285.498 445.305 289.636V351H430.581V264.884H444.509ZM517.016 307.226C517.016 293.801 520.12 283.136 526.328 275.23C532.536 267.271 540.76 263.292 551 263.292C561.506 263.292 569.704 267.006 575.594 274.435L576.31 264.884H589.761V348.931C589.761 360.073 586.444 368.855 579.812 375.275C573.233 381.695 564.372 384.905 553.229 384.905C547.021 384.905 540.946 383.579 535.003 380.926C529.06 378.273 524.524 374.638 521.393 370.022L529.034 361.188C535.348 368.987 543.068 372.887 552.194 372.887C559.357 372.887 564.929 370.871 568.908 366.838C572.941 362.806 574.957 357.128 574.957 349.806V342.404C569.067 349.196 561.029 352.592 550.841 352.592C540.76 352.592 532.589 348.533 526.328 340.415C520.12 332.296 517.016 321.233 517.016 307.226ZM531.819 308.897C531.819 318.607 533.809 326.248 537.789 331.819C541.768 337.337 547.339 340.096 554.502 340.096C563.788 340.096 570.606 335.878 574.957 327.441V288.124C570.447 279.9 563.682 275.788 554.662 275.788C547.499 275.788 541.901 278.573 537.868 284.145C533.836 289.716 531.819 297.967 531.819 308.897ZM720.288 297.436H670.067V338.504H728.406V351H654.786V235.117H727.61V247.692H670.067V284.94H720.288V297.436ZM739.947 307.226C739.947 294.014 743.077 283.402 749.338 275.39C755.599 267.325 763.797 263.292 773.932 263.292C784.013 263.292 791.999 266.741 797.888 273.639V228.75H812.612V351H799.082L798.366 341.768C792.476 348.984 784.278 352.592 773.772 352.592C763.797 352.592 755.653 348.506 749.338 340.335C743.077 332.164 739.947 321.499 739.947 308.34V307.226ZM754.671 308.897C754.671 318.66 756.687 326.301 760.72 331.819C764.752 337.337 770.324 340.096 777.434 340.096C786.772 340.096 793.59 335.904 797.888 327.521V287.965C793.484 279.847 786.719 275.788 777.593 275.788C770.377 275.788 764.752 278.573 760.72 284.145C756.687 289.716 754.671 297.967 754.671 308.897ZM888.7 342.484C882.97 349.222 874.56 352.592 863.47 352.592C854.291 352.592 847.287 349.939 842.458 344.633C837.683 339.274 835.269 331.368 835.216 320.915V264.884H849.94V320.517C849.94 333.57 855.246 340.096 865.858 340.096C877.107 340.096 884.588 335.904 888.302 327.521V264.884H903.026V351H889.019L888.7 342.484ZM960.013 340.574C965.266 340.574 969.855 338.982 973.782 335.798C977.708 332.615 979.884 328.635 980.308 323.86H994.236C993.971 328.794 992.273 333.49 989.143 337.947C986.012 342.404 981.82 345.959 976.567 348.612C971.368 351.265 965.849 352.592 960.013 352.592C948.286 352.592 938.948 348.692 931.997 340.892C925.099 333.039 921.65 322.321 921.65 308.738V306.271C921.65 297.887 923.189 290.432 926.267 283.906C929.344 277.379 933.748 272.312 939.479 268.704C945.262 265.096 952.08 263.292 959.933 263.292C969.59 263.292 977.602 266.184 983.969 271.967C990.389 277.751 993.812 285.259 994.236 294.491H980.308C979.884 288.92 977.761 284.357 973.941 280.802C970.174 277.194 965.504 275.39 959.933 275.39C952.452 275.39 946.642 278.096 942.503 283.508C938.417 288.867 936.375 296.64 936.375 306.828V309.613C936.375 319.535 938.417 327.176 942.503 332.535C946.589 337.894 952.425 340.574 960.013 340.574ZM1063.96 351C1063.11 349.302 1062.42 346.278 1061.89 341.927C1055.04 349.037 1046.87 352.592 1037.37 352.592C1028.88 352.592 1021.91 350.204 1016.44 345.429C1011.03 340.6 1008.32 334.498 1008.32 327.123C1008.32 318.156 1011.72 311.205 1018.51 306.271C1025.36 301.283 1034.96 298.789 1047.32 298.789H1061.65V292.024C1061.65 286.877 1060.11 282.792 1057.03 279.767C1053.96 276.69 1049.42 275.151 1043.42 275.151C1038.17 275.151 1033.77 276.477 1030.21 279.13C1026.66 281.783 1024.88 284.993 1024.88 288.761H1010.07C1010.07 284.463 1011.59 280.324 1014.61 276.345C1017.69 272.312 1021.83 269.129 1027.03 266.794C1032.28 264.459 1038.04 263.292 1044.3 263.292C1054.22 263.292 1061.99 265.786 1067.62 270.773C1073.24 275.708 1076.16 282.526 1076.37 291.228V330.864C1076.37 338.77 1077.38 345.057 1079.4 349.727V351H1063.96ZM1039.52 339.778C1044.14 339.778 1048.52 338.584 1052.66 336.196C1056.79 333.809 1059.79 330.705 1061.65 326.884V309.215H1050.11C1032.07 309.215 1023.05 314.495 1023.05 325.054C1023.05 329.67 1024.59 333.278 1027.66 335.878C1030.74 338.478 1034.69 339.778 1039.52 339.778ZM1119.43 244.031V264.884H1135.51V276.265H1119.43V329.67C1119.43 333.119 1120.15 335.719 1121.58 337.47C1123.01 339.168 1125.45 340.017 1128.9 340.017C1130.6 340.017 1132.93 339.698 1135.91 339.062V351C1132.03 352.061 1128.27 352.592 1124.6 352.592C1118.03 352.592 1113.06 350.602 1109.72 346.623C1106.38 342.643 1104.71 336.992 1104.71 329.67V276.265H1089.03V264.884H1104.71V244.031H1119.43ZM1168.78 351H1154.05V264.884H1168.78V351ZM1152.86 242.042C1152.86 239.654 1153.58 237.638 1155.01 235.993C1156.49 234.348 1158.67 233.525 1161.53 233.525C1164.4 233.525 1166.57 234.348 1168.06 235.993C1169.55 237.638 1170.29 239.654 1170.29 242.042C1170.29 244.429 1169.55 246.419 1168.06 248.011C1166.57 249.603 1164.4 250.398 1161.53 250.398C1158.67 250.398 1156.49 249.603 1155.01 248.011C1153.58 246.419 1152.86 244.429 1152.86 242.042ZM1188.52 307.146C1188.52 298.709 1190.16 291.122 1193.45 284.383C1196.79 277.645 1201.41 272.445 1207.3 268.784C1213.24 265.123 1220.01 263.292 1227.59 263.292C1239.32 263.292 1248.79 267.351 1256.01 275.469C1263.28 283.587 1266.91 294.385 1266.91 307.862V308.897C1266.91 317.28 1265.29 324.815 1262.06 331.5C1258.87 338.133 1254.28 343.306 1248.29 347.021C1242.34 350.735 1235.5 352.592 1227.75 352.592C1216.08 352.592 1206.61 348.533 1199.34 340.415C1192.12 332.296 1188.52 321.552 1188.52 308.181V307.146ZM1203.32 308.897C1203.32 318.448 1205.52 326.115 1209.92 331.898C1214.38 337.682 1220.32 340.574 1227.75 340.574C1235.23 340.574 1241.18 337.655 1245.58 331.819C1249.99 325.929 1252.19 317.705 1252.19 307.146C1252.19 297.701 1249.93 290.061 1245.42 284.224C1240.96 278.334 1235.02 275.39 1227.59 275.39C1220.32 275.39 1214.46 278.281 1210 284.065C1205.55 289.848 1203.32 298.126 1203.32 308.897ZM1299.3 264.884L1299.78 275.708C1306.36 267.431 1314.96 263.292 1325.57 263.292C1343.77 263.292 1352.95 273.559 1353.11 294.093V351H1338.38V294.014C1338.33 287.806 1336.9 283.216 1334.08 280.245C1331.33 277.273 1327 275.788 1321.11 275.788C1316.34 275.788 1312.14 277.061 1308.54 279.608C1304.93 282.155 1302.12 285.498 1300.1 289.636V351H1285.38V264.884H1299.3Z" fill="black"/>
<path d="M1103.68 197H1074.53L1017.78 103.913V197H988.632V55.5234H1017.78L1074.63 148.805V55.5234H1103.68V197ZM1210.76 167.85H1159.65L1149.93 197H1118.93L1171.6 55.5234H1198.61L1251.57 197H1220.57L1210.76 167.85ZM1167.52 144.238H1202.89L1185.11 91.2812L1167.52 144.238ZM1302.87 55.5234L1339.21 158.133L1375.36 55.5234H1413.64V197H1384.4V158.327L1387.31 91.5728L1349.12 197H1329.11L1291.02 91.6699L1293.93 158.327V197H1264.78V55.5234H1302.87ZM1524.22 135.687H1468.25V173.583H1533.94V197H1439.1V55.5234H1533.74V79.1353H1468.25V112.853H1524.22V135.687Z" fill="#C54330"/>
</svg>
